<svg id="Ebene_1" data-name="Ebene 1" xmlns="http://www.w3.org/2000/svg" viewBox="0 0 550.79 72.47"><title>HANSA-FLEX_Logo_4c</title><path d="M319.67,14.47l13.92,5.81s-2.5,5.24-3.67,8.67c-1.07,3.17-3.66,11-3.66,11s-7.36,8.75-11.17,23.9a103.39,103.39,0,0,0-3.2,22.44H306a160.81,160.81,0,0,1,3.38-36.36C312.23,36.44,319.67,14.47,319.67,14.47Z" transform="translate(-13.91 -14.47)" fill="#1a1a18"/><path d="M13.91,86V41.45H31.75v15H48.62v-15H66.46V86H48.62V68.74H31.75V86Z" transform="translate(-13.91 -14.47)" fill="#d40e14"/><path d="M69.46,86,89,41.45h18.14L126.62,86H108.85l-2.12-5.88H89l-2,5.88ZM97.89,54.88l-5.52,16h11.26Z" transform="translate(-13.91 -14.47)" fill="#d40e14"/><path d="M168.79,65.77l-.68-10.15V41.45H185.2V86H168.49L149.06,61.75l.68,10.15V86H132.65V41.45h16.71Z" transform="translate(-13.91 -14.47)" fill="#d40e14"/><path d="M221.26,54.13a4,4,0,0,0-2.57-3,11.84,11.84,0,0,0-4.61-.8c-3.93,0-5.67.93-5.67,2.53,0,6.69,31.3,2.54,31.3,18.76,0,10.33-10.51,15.34-25.48,15.34-14.37,0-23.74-6.87-24.12-14.91H207.2a5.21,5.21,0,0,0,3,3.53,11.48,11.48,0,0,0,5.06,1.11c4.46,0,7.41-1.18,7.41-3.28,0-6.75-31.3-2.1-31.3-19.12,0-9.47,10-14.23,23.59-14.23,15.12,0,22,6.31,23.29,14.1Z" transform="translate(-13.91 -14.47)" fill="#d40e14"/><path d="M241.26,86l19.51-44.56h18.15L298.42,86H280.66l-2.12-5.88H260.77l-2,5.88Zm28.43-31.13-5.52,16h11.27Z" transform="translate(-13.91 -14.47)" fill="#d40e14"/><path d="M358.17,86V41.45h42.34v10.4H376V60h19.51v10.4H376V86Z" transform="translate(-13.91 -14.47)" fill="#d40e14"/><path d="M410.26,86V41.45H428.1V75.61h24.5V86Z" transform="translate(-13.91 -14.47)" fill="#d40e14"/><path d="M457.66,86V41.45H502v10.4H475.5v6.37H498v10.4H475.5v7h27.6V86Z" transform="translate(-13.91 -14.47)" fill="#d40e14"/><path d="M527.13,86h-20l19.28-23.15L509,41.45h20l7.71,11.39,7.79-11.39h20L546.18,62.86,564.71,86h-20l-8.77-12.5Z" transform="translate(-13.91 -14.47)" fill="#d40e14"/><path d="M340.06,23.56S327,38.07,320.73,52.7a88,88,0,0,0-7.26,33.56l13.55,0a81.82,81.82,0,0,1,6.71-27.81,93.91,93.91,0,0,1,16.66-25.21Z" transform="translate(-13.91 -14.47)" fill="#d40e14"/></svg>